<?xml version="1.0" encoding="UTF-8" standalone="no"?>
<!-- Created with Inkscape (http://www.inkscape.org/) -->

<svg
   xmlns:dc="http://purl.org/dc/elements/1.1/"
   xmlns:cc="http://creativecommons.org/ns#"
   xmlns:rdf="http://www.w3.org/1999/02/22-rdf-syntax-ns#"
   xmlns:svg="http://www.w3.org/2000/svg"
   xmlns="http://www.w3.org/2000/svg"
   xmlns:sodipodi="http://sodipodi.sourceforge.net/DTD/sodipodi-0.dtd"
   xmlns:inkscape="http://www.inkscape.org/namespaces/inkscape"
   width="800px"
   height="600px"
   id="svg3336"
   version="1.1"
   inkscape:version="0.48.3.1 r9886"
   sodipodi:docname="New document 9">
  <defs
     id="defs3338" />
  <sodipodi:namedview
     id="base"
     pagecolor="#ffffff"
     bordercolor="#666666"
     borderopacity="1.0"
     inkscape:pageopacity="0.0"
     inkscape:pageshadow="2"
     inkscape:zoom="1"
     inkscape:cx="400"
     inkscape:cy="300"
     inkscape:current-layer="layer1"
     inkscape:document-units="px"
     showgrid="false"
     inkscape:window-width="1440"
     inkscape:window-height="877"
     inkscape:window-x="0"
     inkscape:window-y="0"
     inkscape:window-maximized="1" />
  <metadata
     id="metadata3341">
    <rdf:RDF>
      <cc:Work
         rdf:about="">
        <dc:format>image/svg+xml</dc:format>
        <dc:type
           rdf:resource="http://purl.org/dc/dcmitype/StillImage" />
        <dc:title></dc:title>
      </cc:Work>
    </rdf:RDF>
  </metadata>
  <g
     id="layer1"
     inkscape:label="Layer 1"
     inkscape:groupmode="layer">
    <path
       style="fill:none;stroke:#000000;stroke-width:1px;stroke-linecap:butt;stroke-linejoin:miter;stroke-opacity:1"
       d="m 100.41412,50.25 0,101"
       id="path3276"
       inkscape:connector-curvature="0" />
    <path
       style="fill:none;stroke:#000000;stroke-width:1px;stroke-linecap:butt;stroke-linejoin:miter;stroke-opacity:1"
       d="m 100.41412,180.5 0,101"
       id="path3276-6"
       inkscape:connector-curvature="0" />
    <path
       style="fill:none;stroke:#000000;stroke-width:1px;stroke-linecap:butt;stroke-linejoin:miter;stroke-opacity:1"
       d="m 101.41224,150.25191 532.00376,0.0514"
       id="path3303"
       inkscape:connector-curvature="0" />
    <path
       style="fill:none;stroke:#000000;stroke-width:0.9973886px;stroke-linecap:butt;stroke-linejoin:miter;stroke-opacity:1"
       d="m 100.33225,280.60028 529.22877,-0.14541"
       id="path3303-2"
       inkscape:connector-curvature="0" />
    <path
       style="fill:none;stroke:#000000;stroke-width:1px;stroke-linecap:butt;stroke-linejoin:miter;stroke-opacity:1"
       d="m 100.7919,120.08611 532.00356,-0.45968"
       id="path3303-1"
       inkscape:connector-curvature="0"
       inkscape:transform-center-x="-28.379561"
       inkscape:transform-center-y="-135.9213" />
    <path
       style="fill:none;stroke:#000000;stroke-width:1.57821763px;stroke-linecap:butt;stroke-linejoin:miter;stroke-opacity:1"
       d="M 100.49555,232.35042 628.5444,232.06749"
       id="path3330"
       inkscape:connector-curvature="0" />
    <path
       style="fill:none;stroke:#000000;stroke-width:1px;stroke-linecap:butt;stroke-linejoin:miter;stroke-opacity:1"
       d="m 629.41412,232.25 0,48"
       id="path3332"
       inkscape:connector-curvature="0" />
    <path
       style="fill:none;stroke:#000000;stroke-width:1.5785594px;stroke-linecap:butt;stroke-linejoin:miter;stroke-opacity:1"
       d="m 100.41412,84.25 533.25581,0"
       id="path3334"
       inkscape:connector-curvature="0" />
    <path
       style="fill:none;stroke:#000000;stroke-width:1.58767331px;stroke-linecap:butt;stroke-linejoin:miter;stroke-opacity:1"
       d="m 100.60145,48.65843 533.42399,-0.80887 -0.99869,71.46558"
       id="path3336"
       inkscape:connector-curvature="0" />
    <path
       style="fill:none;stroke:#000000;stroke-width:1px;stroke-linecap:butt;stroke-linejoin:miter;stroke-opacity:1"
       d="m 632.41412,121.25 -533,-1"
       id="path3363"
       inkscape:connector-curvature="0" />
    <path
       style="fill:none;stroke:#000000;stroke-width:1.41421354px;stroke-linecap:butt;stroke-linejoin:miter;stroke-opacity:1"
       d="m 631.91412,122.25 0,29"
       id="path3419"
       inkscape:connector-curvature="0" />
    <path
       style="fill:#00ff00"
       d="m 102.01412,135.65 0,-14 231.33676,0 c 127.23521,0 246.26021,0.29778 264.5,0.66174 l 33.16324,0.66173 0,13.33826 0,13.33827 -264.5,0 -264.5,0 0,-14 z"
       id="path3423"
       inkscape:connector-curvature="0" />
    <path
       style="fill:#00ffff"
       d="m 102.01412,256.65 0,-23 122.90623,0 c 67.59837,0 185.94837,-0.29867 263,-0.66371 l 140.09377,-0.6637 0,23.6637 0,23.66371 -263,0 -263,0 0,-23 z"
       id="path3448"
       inkscape:connector-curvature="0" />
    <text
       xml:space="preserve"
       style="font-size:18px;font-style:normal;font-variant:normal;font-weight:normal;font-stretch:normal;text-align:start;line-height:125%;letter-spacing:0px;word-spacing:0px;writing-mode:lr-tb;text-anchor:start;fill:#000000;fill-opacity:1;stroke:none;font-family:Sans;-inkscape-font-specification:Sans"
       x="349.41412"
       y="140.25"
       id="text3460"
       sodipodi:linespacing="125%"><tspan
         sodipodi:role="line"
         x="349.41412"
         y="140.25"
         id="tspan3464">VM4</tspan></text>
    <text
       xml:space="preserve"
       style="font-size:18px;font-style:normal;font-variant:normal;font-weight:normal;font-stretch:normal;text-align:start;line-height:125%;letter-spacing:0px;word-spacing:0px;writing-mode:lr-tb;text-anchor:start;fill:#000000;fill-opacity:1;stroke:none;font-family:Sans;-inkscape-font-specification:Sans"
       x="348.41412"
       y="261.25"
       id="text3468"
       sodipodi:linespacing="125%"><tspan
         sodipodi:role="line"
         id="tspan3470"
         x="348.41412"
         y="261.25">VM3</tspan></text>
    <text
       xml:space="preserve"
       style="font-size:18px;font-style:normal;font-variant:normal;font-weight:normal;font-stretch:normal;text-align:start;line-height:125%;letter-spacing:0px;word-spacing:0px;writing-mode:lr-tb;text-anchor:start;fill:#000000;fill-opacity:1;stroke:none;font-family:Sans;-inkscape-font-specification:Sans"
       x="350.52643"
       y="109.81104"
       id="text3456-5"
       sodipodi:linespacing="125%"><tspan
         sodipodi:role="line"
         id="tspan3458-4"
         x="350.52643"
         y="109.81104">VM1</tspan></text>
    <text
       xml:space="preserve"
       style="font-size:18px;font-style:normal;font-variant:normal;font-weight:normal;font-stretch:normal;text-align:start;line-height:125%;letter-spacing:0px;word-spacing:0px;writing-mode:lr-tb;text-anchor:start;fill:#000000;fill-opacity:1;stroke:none;font-family:Sans;-inkscape-font-specification:Sans"
       x="349.59674"
       y="72.929688"
       id="text3452-7"
       sodipodi:linespacing="125%"><tspan
         sodipodi:role="line"
         id="tspan3454-2"
         x="349.59674"
         y="72.929688">VM2</tspan></text>
    <text
       xml:space="preserve"
       style="font-size:18px;font-style:normal;font-variant:normal;font-weight:normal;font-stretch:normal;text-align:start;line-height:125%;letter-spacing:0px;word-spacing:0px;writing-mode:lr-tb;text-anchor:start;fill:#000000;fill-opacity:1;stroke:none;font-family:Sans;-inkscape-font-specification:Sans"
       x="37.414124"
       y="109.25"
       id="text3539"
       sodipodi:linespacing="125%"><tspan
         sodipodi:role="line"
         id="tspan3541"
         x="37.414124"
         y="109.25">N3</tspan></text>
    <text
       xml:space="preserve"
       style="font-size:18px;font-style:normal;font-variant:normal;font-weight:normal;font-stretch:normal;text-align:start;line-height:125%;letter-spacing:0px;word-spacing:0px;writing-mode:lr-tb;text-anchor:start;fill:#000000;fill-opacity:1;stroke:none;font-family:Sans;-inkscape-font-specification:Sans"
       x="36.414124"
       y="243.37305"
       id="text3543"
       sodipodi:linespacing="125%"><tspan
         sodipodi:role="line"
         id="tspan3545"
         x="36.414124"
         y="243.37305">N1</tspan></text>
    <path
       style="fill:#00ff00"
       d="m 101.34796,66.25033 0,-16.5 214.33554,0 c 117.88454,0 237.35954,-0.29855 265.5,-0.66345 l 51.16446,-0.66345 0,17.16345 0,17.16345 -265.5,0 -265.5,0 0,-16.5 z m 256,7.11906 c 0,-0.20952 1.13422,-3.39429 2.52049,-7.07727 2.20549,-5.85943 2.30958,-6.65543 0.83287,-6.36906 -0.97988,0.19002 -2.3183,2.21444 -3.19147,4.82727 l -1.50384,4.5 -1.95389,-4.75 c -1.07464,-2.6125 -2.5727,-4.75 -3.32902,-4.75 -1.78951,0 -1.80516,-0.0952 1.2312,7.48948 1.46236,3.65291 3.21805,6.51052 4,6.51052 0.76651,0 1.39366,-0.17142 1.39366,-0.38094 z m 9.06339,-3.36906 c 0.055,-3.2543 0.18293,-3.45258 0.96777,-1.5 1.23549,3.07373 3.59081,2.82872 4.80656,-0.5 0.95356,-2.61085 1.00838,-2.53495 1.08333,1.5 0.0571,3.07602 0.49329,4.25 1.57895,4.25 1.19048,0 1.5,-1.44444 1.5,-7 0,-6.2015 -0.21594,-7 -1.89305,-7 -1.24969,0 -2.39354,1.25483 -3.36573,3.6923 l -1.47269,3.69231 -1.33515,-3.69231 c -0.86549,-2.39346 -1.96803,-3.6923 -3.13427,-3.6923 -1.5608,0 -1.79911,0.92721 -1.79911,7 0,5.55556 0.30952,7 1.5,7 1.0554,0 1.51879,-1.1115 1.56339,-3.75 z m 20.93661,2.25 c 0,-0.85084 -0.89695,-1.5 -2.07258,-1.5 l -2.07258,0 2.07258,-2.63486 c 4.05812,-5.15906 1.22445,-10.26364 -4.8201,-8.68295 -3.46521,0.90617 -2.63938,3.37422 0.89268,2.66781 2.32717,-0.46543 3,-0.24336 3,0.9902 0,0.87462 -1.35,3.12777 -3,5.00702 -4.09306,4.66174 -3.83008,5.65278 1.5,5.65278 3.33333,0 4.5,-0.38889 4.5,-1.5 z"
       id="path3313"
       inkscape:connector-curvature="0" />
    <path
       style="fill:#00ff00"
       d="m 101.34796,102.25033 0,-16.5 265.5,0 265.5,0 0,10.35331 c 0,5.69432 -0.28911,13.11932 -0.64246,16.5 l -0.64245,6.14669 -264.85755,0 -264.85754,0 0,-16.5 z m 257,8.11906 c 0,-0.20952 1.13422,-3.39429 2.52049,-7.07727 2.16429,-5.74999 2.28829,-6.65008 0.8774,-6.36906 -0.90371,0.18 -2.42062,2.31856 -3.37092,4.75236 l -1.72782,4.42509 -1.78543,-4.67509 c -0.98199,-2.5713 -2.3993,-4.67509 -3.14958,-4.67509 -1.72438,0 -1.72549,-0.0132 0.47767,5.71298 1.013,2.63286 2.12388,5.57452 2.46862,6.53702 0.51824,1.44691 3.68957,2.62367 3.68957,1.36906 z m 8.08157,-4.36906 0.0816,-4.75 1.42129,3.25 c 1.73761,3.9733 3.90923,4.17999 5.25328,0.5 0.95356,-2.61085 1.00838,-2.53495 1.08333,1.5 0.0571,3.07602 0.49329,4.25 1.57895,4.25 1.19188,0 1.5,-1.45217 1.5,-7.06955 0,-6.68175 -0.11881,-7.05202 -2.1659,-6.75 -1.45261,0.21431 -2.55324,1.47221 -3.34203,3.81955 l -1.17612,3.5 -1.35886,-3.75 c -0.88427,-2.44023 -1.98727,-3.75 -3.158,-3.75 -1.5608,0 -1.79911,0.92721 -1.79911,7 0,4 0.42857,7 1,7 0.55,0 1.03671,-2.1375 1.08157,-4.75 z m 21.91843,3.25 c 0,-0.825 -0.675,-1.5 -1.5,-1.5 -1.15368,0 -1.5,-1.28516 -1.5,-5.56642 0,-5.4825 -0.0415,-5.56165 -2.75,-5.25 -1.5125,0.17403 -2.525,0.76642 -2.25,1.31642 0.275,0.55 1.0625,0.9375 1.75,0.86111 0.83122,-0.0924 1.25,1.33148 1.25,4.25 0,3.23457 -0.39451,4.38889 -1.5,4.38889 -0.825,0 -1.5,0.675 -1.5,1.5 0,1.08333 1.11111,1.5 4,1.5 2.88889,0 4,-0.41667 4,-1.5 z"
       id="path3315"
       inkscape:connector-curvature="0" />
  </g>
</svg>
