<?xml version="1.0" encoding="UTF-8" standalone="no"?>
<!-- Created with Inkscape (http://www.inkscape.org/) -->

<svg
   xmlns:dc="http://purl.org/dc/elements/1.1/"
   xmlns:cc="http://creativecommons.org/ns#"
   xmlns:rdf="http://www.w3.org/1999/02/22-rdf-syntax-ns#"
   xmlns:svg="http://www.w3.org/2000/svg"
   xmlns="http://www.w3.org/2000/svg"
   xmlns:sodipodi="http://sodipodi.sourceforge.net/DTD/sodipodi-0.dtd"
   xmlns:inkscape="http://www.inkscape.org/namespaces/inkscape"
   width="640px"
   height="480px"
   id="svg3073"
   version="1.1"
   inkscape:version="0.48.3.1 r9886"
   sodipodi:docname="L5.eps">
  <defs
     id="defs3075" />
  <sodipodi:namedview
     id="base"
     pagecolor="#ffffff"
     bordercolor="#666666"
     borderopacity="1.0"
     inkscape:pageopacity="0.0"
     inkscape:pageshadow="2"
     inkscape:zoom="1"
     inkscape:cx="386.3166"
     inkscape:cy="231.87692"
     inkscape:current-layer="layer1"
     inkscape:document-units="px"
     showgrid="false"
     inkscape:window-width="1070"
     inkscape:window-height="709"
     inkscape:window-x="0"
     inkscape:window-y="0"
     inkscape:window-maximized="0" />
  <metadata
     id="metadata3078">
    <rdf:RDF>
      <cc:Work
         rdf:about="">
        <dc:format>image/svg+xml</dc:format>
        <dc:type
           rdf:resource="http://purl.org/dc/dcmitype/StillImage" />
        <dc:title></dc:title>
      </cc:Work>
    </rdf:RDF>
  </metadata>
  <g
     id="layer1"
     inkscape:label="Layer 1"
     inkscape:groupmode="layer">
    <rect
       style="fill:#e3dbde"
       id="rect2985"
       width="260"
       height="395"
       x="169"
       y="17.5"
       ry="38" />
    <rect
       style="fill:#ffffff"
       id="rect2993"
       width="120"
       height="89"
       x="240.5"
       y="51.75"
       ry="0" />
    <rect
       style="fill:#ffffff"
       id="rect2993-0"
       width="120"
       height="89"
       x="241"
       y="221.25"
       ry="0" />
    <text
       xml:space="preserve"
       style="font-size:18px;font-style:normal;font-variant:normal;font-weight:normal;font-stretch:normal;text-align:start;line-height:125%;letter-spacing:0px;word-spacing:0px;writing-mode:lr-tb;text-anchor:start;fill:#000000;fill-opacity:1;stroke:none;font-family:Courier;-inkscape-font-specification:Courier"
       x="272"
       y="97.75"
       id="text3013"
       sodipodi:linespacing="125%"><tspan
         sodipodi:role="line"
         id="tspan3015"
         x="272"
         y="97.75">T5.1</tspan></text>
    <text
       xml:space="preserve"
       style="font-size:18px;font-style:normal;font-variant:normal;font-weight:normal;font-stretch:normal;text-align:start;line-height:125%;letter-spacing:0px;word-spacing:0px;writing-mode:lr-tb;text-anchor:start;fill:#000000;fill-opacity:1;stroke:none;font-family:Courier;-inkscape-font-specification:Courier"
       x="275.87854"
       y="267.186"
       id="text3013-5"
       sodipodi:linespacing="125%"><tspan
         sodipodi:role="line"
         id="tspan3015-4"
         x="275.87854"
         y="267.186">T5.2</tspan></text>
    <path
       style="fill:none;stroke:#000000;stroke-width:1px;stroke-linecap:butt;stroke-linejoin:miter;stroke-opacity:1"
       d="m 301,140.75 0,81"
       id="path3038"
       inkscape:connector-curvature="0" />
    <text
       xml:space="preserve"
       style="font-size:18px;font-style:normal;font-variant:normal;font-weight:normal;font-stretch:normal;text-align:start;line-height:125%;letter-spacing:0px;word-spacing:0px;writing-mode:lr-tb;text-anchor:start;fill:#000000;fill-opacity:1;stroke:none;font-family:Courier;-inkscape-font-specification:Courier"
       x="287"
       y="382.75"
       id="text3040"
       sodipodi:linespacing="125%"><tspan
         sodipodi:role="line"
         id="tspan3042"
         x="287"
         y="382.75">D.3</tspan></text>
    <path
       style="fill:none;stroke:#000000;stroke-width:1px;stroke-linecap:butt;stroke-linejoin:miter;stroke-opacity:1"
       d="m 301,220.75 -18,-14 36,0 z"
       id="path3044"
       inkscape:connector-curvature="0" />
    <text
       xml:space="preserve"
       style="font-size:18px;font-style:normal;font-variant:normal;font-weight:normal;font-stretch:normal;text-align:start;line-height:125%;letter-spacing:0px;word-spacing:0px;writing-mode:lr-tb;text-anchor:start;fill:#000000;fill-opacity:1;stroke:none;font-family:Courier;-inkscape-font-specification:Courier"
       x="364"
       y="398.75"
       id="text3046"
       sodipodi:linespacing="125%"><tspan
         sodipodi:role="line"
         id="tspan3048"
         x="364"
         y="398.75">L.5</tspan></text>
    <path
       style="fill:none;stroke:#000000;stroke-width:0.79491383px;stroke-linecap:butt;stroke-linejoin:miter;stroke-opacity:1"
       d="M 301,312.31707 301,363.5"
       id="path3038-1"
       inkscape:connector-curvature="0" />
    <path
       style="fill:none;stroke:#000000;stroke-width:1px;stroke-linecap:butt;stroke-linejoin:miter;stroke-opacity:1"
       d="m 301,362.5 -18,-14 36,0 z"
       id="path3044-4"
       inkscape:connector-curvature="0" />
    <path
       style="fill:none;stroke:#000000;stroke-width:1px;stroke-linecap:butt;stroke-linejoin:miter;stroke-opacity:1"
       d="m 301,220.63012 -18,-14 36,0 z"
       id="path3044-9"
       inkscape:connector-curvature="0" />
    <path
       style="fill:#000000"
       d="m 293.09264,213.68292 c -3.85,-3.02055 -7.28125,-5.70773 -7.625,-5.9715 -0.62023,-0.47592 -0.56543,-0.47964 7.1875,-0.4875 l 7.8125,-0.008 0,6 c 0,3.3 -0.0844,5.99074 -0.1875,5.97942 -0.10312,-0.0113 -3.3375,-2.49194 -7.1875,-5.5125 z"
       id="path3139"
       inkscape:connector-curvature="0" />
    <path
       style="fill:#000000"
       d="m 301.71764,213.24612 0,-6.03012 7.67857,0 c 6.46244,0 7.6206,0.0535 7.3125,0.3377 -0.20134,0.18573 -3.17857,2.51338 -6.61607,5.17254 -3.4375,2.65916 -6.72812,5.22075 -7.3125,5.69242 l -1.0625,0.85757 0,-6.03011 z"
       id="path3141"
       inkscape:connector-curvature="0" />
    <path
       style="fill:#000000"
       d="m 301.52674,213.34868 0,-6.20583 6,0 c 3.97916,0 6,0.0105 6,0.0312 0,0.0207 -1.98959,0.0312 -5.90625,0.0312 l -5.90625,0 0,6.05172 c 0,5.76083 0.003,6.04944 0.0547,6.00415 0.35977,-0.31293 2.71453,-2.15986 6.35157,-4.98177 1.26328,-0.98016 2.99648,-2.32546 3.85156,-2.98956 1.3029,-1.01189 1.55469,-1.19566 1.55469,-1.13468 0,0.0597 -1.05417,0.89282 -5.88065,4.64739 -3.23435,2.51605 -5.93435,4.61452 -6,4.66327 l -0.11935,0.0886 0,-6.20583 z"
       id="path3143"
       inkscape:connector-curvature="0" />
    <path
       style="fill:#000000"
       d="m 299.91404,219.10976 c -0.59707,-0.47297 -0.65185,-0.60604 -0.0745,-0.18103 0.21338,0.15707 0.41299,0.28559 0.44358,0.28559 0.0646,0 0.0589,0.0422 0.11543,-0.84375 l 0.0439,-0.6875 0.0106,0.92188 c 0.006,0.50703 0.004,0.92043 -0.005,0.91867 -0.009,-0.002 -0.24892,-0.18799 -0.53406,-0.41386 l 0,0 z"
       id="path3145"
       inkscape:connector-curvature="0" />
    <path
       style="fill:#000000"
       d="m 293.35471,214.04019 -6.40402,-4.98305 0.10982,0 0.10981,0 2.78639,2.18227 c 5.34314,4.1847 7.39415,5.77942 8.9473,6.95677 0.38929,0.29509 0.7052,0.53912 0.70202,0.54229 -0.003,0.003 -0.0417,-0.0134 -0.0856,-0.0368 -0.0439,-0.0234 -0.0855,-0.0369 -0.0924,-0.03 -0.0126,0.0126 0.11482,0.14157 0.27599,0.27936 0.0473,0.0404 0.0789,0.0732 0.0703,0.0728 -0.009,-3.5e-4 -2.89743,-2.24301 -6.41964,-4.98368 l 0,0 z"
       id="path3147"
       inkscape:connector-curvature="0" />
    <path
       style="fill:#000000"
       d="m 300.49728,221.23855 -0.004,-0.38109 -7.57813,-5.89389 c -4.16797,-3.24164 -7.58105,-5.89671 -7.58463,-5.90016 -0.004,-0.003 0.3525,-0.006 0.7913,-0.006 l 0.79781,0 6.78682,5.27866 6.78683,5.27865 0.004,-5.27865 0.004,-5.27866 0.49216,0 0.49216,0 0,5.28125 c 0,2.90469 0.003,5.28125 0.007,5.28125 0.005,0 5.11665,-3.97012 5.63722,-4.37853 l 0.0586,-0.046 -3e-4,0.6224 -2.8e-4,0.62241 -2.85128,2.21699 -2.85127,2.21699 0,0.37286 0,0.37285 -0.49191,0 -0.49191,0 -0.004,-0.38109 z"
       id="path3149"
       inkscape:connector-curvature="0" />
    <path
       style="fill:#000000"
       d="m 300.43967,219.55085 c -0.0132,-0.0159 -0.0134,-0.0235 -7.6e-4,-0.0277 0.012,-0.004 0.0183,-0.10853 0.0202,-0.33355 0.005,-0.58438 -0.005,-1.51292 -0.0157,-1.50204 -0.006,0.006 -0.0158,0.0791 -0.0222,0.16276 -0.0138,0.18069 -0.004,-0.34317 0.0199,-1.12128 0.009,-0.29648 0.0216,-2.1457 0.0273,-4.10937 l 0.0105,-3.57031 0.003,5.26172 c 0.002,3.01036 -0.003,5.26171 -0.0106,5.26171 -0.008,0 -0.0219,-0.01 -0.0319,-0.0219 z"
       id="path3151"
       inkscape:connector-curvature="0" />
    <path
       style="fill:#000000"
       d="m 285.70734,208.09432 -1.23588,-0.96122 3.255,0 3.255,0 0,0.0442 0,0.0442 -0.74301,1.1e-4 c -1.00471,1.3e-4 -3.03776,0.0192 -3.52725,0.033 -0.99171,0.0281 -1.40404,0.0757 -1.46992,0.16976 -0.0313,0.0447 -0.0201,0.0719 0.064,0.15469 0.0637,0.0627 0.62356,0.50461 1.8527,1.46231 0.0139,0.0108 -0.005,0.0135 -0.0987,0.0138 l -0.11601,3.4e-4 -1.23588,-0.96121 0,0 z"
       id="path3153"
       inkscape:connector-curvature="0" />
    <path
       style="fill:#000000"
       d="m 300.01487,218.99819 c -0.62868,-0.45004 -3.08789,-2.3381 -5.58063,-4.28455 -4.10644,-3.2065 -9.00764,-7.04996 -9.08819,-7.12684 -0.0516,-0.0493 -0.0939,-0.10666 -0.0939,-0.12746 0,-0.0852 0.31948,-0.13943 1.02751,-0.17453 0.36382,-0.018 14.15302,-0.0761 14.16542,-0.0596 0.002,0.003 0.008,2.46105 0.0137,5.46294 0.005,3.00189 0.004,5.3486 -0.004,5.21491 -0.007,-0.13368 -0.0119,-0.78499 -0.0101,-1.44735 0.002,-0.66236 1.7e-4,-1.05514 -0.004,-0.87284 -0.0474,2.22331 -0.0702,2.85152 -0.12103,3.33666 -0.0127,0.12153 -0.0309,0.22889 -0.0403,0.23858 -0.009,0.01 -0.12878,-0.0623 -0.26516,-0.15989 l 0,0 z"
       id="path3155"
       inkscape:connector-curvature="0" />
    <path
       style="fill:#000000"
       d="m 300.00716,218.99231 c -1.00121,-0.71751 -3.63752,-2.759 -10.16988,-7.87526 -1.73793,-1.36119 -3.4383,-2.69224 -3.7786,-2.9579 -0.66953,-0.52268 -0.80654,-0.64156 -0.80654,-0.69981 0,-0.0852 0.31962,-0.13946 1.02751,-0.1745 0.36868,-0.0183 14.15227,-0.0766 14.16506,-0.06 0.002,0.003 0.009,2.4614 0.0143,5.46329 0.006,3.00189 0.003,5.34363 -0.005,5.20387 -0.008,-0.13977 -0.0125,-0.71153 -0.01,-1.27059 0.006,-1.17479 -0.002,-1.1063 -0.0339,0.29767 -0.0307,1.34183 -0.0801,2.18666 -0.13084,2.23897 -0.009,0.01 -0.13213,-0.0649 -0.27279,-0.16573 l 0,0 z"
       id="path3157"
       inkscape:connector-curvature="0" />
    <path
       style="fill:#000000"
       d="m 298.17298,207.21326 c 0.026,-0.002 0.0658,-0.002 0.0884,8e-5 0.0226,0.002 0.001,0.004 -0.0473,0.004 -0.0486,-4e-5 -0.0671,-0.002 -0.0411,-0.004 z"
       id="path3159"
       inkscape:connector-curvature="0" />
    <path
       style="fill:#000000"
       d="m 290.98643,207.1768 0,-0.0465 4.55752,0 4.55753,0 0,0.0417 0,0.0417 -0.96537,-2.2e-4 c -0.53095,-1.2e-4 -1.29848,0.001 -1.70562,0.003 -0.40714,0.002 -2.02361,0.004 -3.59215,0.005 l -2.85191,0.002 0,-0.0465 z"
       id="path3161"
       inkscape:connector-curvature="0" />
    <path
       style="fill:#000000"
       d="m 311.87196,211.51777 c 0,-0.003 0.12554,-0.10307 0.27898,-0.22332 0.89476,-0.70124 1.3783,-1.10053 1.3783,-1.13816 0,-0.0379 -0.0917,0.01 -0.26341,0.1367 -0.0446,0.033 -0.0834,0.0577 -0.0862,0.0549 -0.003,-0.003 0.28729,-0.23286 0.6446,-0.5113 1.34751,-1.0501 2.54877,-1.99598 2.80012,-2.20485 0.11984,-0.0996 0.13104,-0.11314 0.13104,-0.15876 0,-0.11542 -0.4622,-0.17843 -1.57995,-0.21538 -0.71478,-0.0236 -1.66851,-0.034 -3.83936,-0.0417 l -2.23181,-0.008 2.14342,-0.007 c 1.17888,-0.004 2.17573,-0.0108 2.21523,-0.016 l 0.0718,-0.009 -0.0442,-0.009 c -0.0243,-0.005 -0.81731,-0.0132 -1.76224,-0.0179 -1.55415,-0.008 -1.35975,-0.009 2.0379,-0.0105 2.07465,-0.001 3.75126,0.002 3.74546,0.007 -0.0317,0.0285 -5.62882,4.37684 -5.63379,4.37684 -0.003,0 -0.006,-0.002 -0.006,-0.005 z"
       id="path3163"
       inkscape:connector-curvature="0" />
    <path
       style="fill:none;stroke:#000000;stroke-width:1px;stroke-linecap:butt;stroke-linejoin:miter;stroke-opacity:1"
       d="m 300.95815,362.27627 -18,-14 36,0 z"
       id="path3044-9-2"
       inkscape:connector-curvature="0" />
    <path
       style="fill:#000000"
       d="m 293.05079,355.32907 c -3.85,-3.02055 -7.28125,-5.70773 -7.625,-5.9715 -0.62023,-0.47592 -0.56543,-0.47964 7.1875,-0.4875 l 7.8125,-0.008 0,6 c 0,3.3 -0.0844,5.99074 -0.1875,5.97942 -0.10312,-0.0113 -3.3375,-2.49194 -7.1875,-5.5125 z"
       id="path3139-5"
       inkscape:connector-curvature="0" />
    <path
       style="fill:#000000"
       d="m 301.67579,354.89227 0,-6.03012 7.67857,0 c 6.46244,0 7.6206,0.0535 7.3125,0.3377 -0.20134,0.18573 -3.17857,2.51338 -6.61607,5.17254 -3.4375,2.65916 -6.72812,5.22075 -7.3125,5.69242 l -1.0625,0.85757 0,-6.03011 z"
       id="path3141-2"
       inkscape:connector-curvature="0" />
    <path
       style="fill:#000000"
       d="m 301.48489,354.99483 0,-6.20583 6,0 c 3.97916,0 6,0.0105 6,0.0312 0,0.0207 -1.98959,0.0312 -5.90625,0.0312 l -5.90625,0 0,6.05172 c 0,5.76083 0.003,6.04944 0.0547,6.00415 0.35977,-0.31293 2.71453,-2.15986 6.35157,-4.98177 1.26328,-0.98016 2.99648,-2.32546 3.85156,-2.98956 1.3029,-1.01189 1.55469,-1.19566 1.55469,-1.13468 0,0.0597 -1.05417,0.89282 -5.88065,4.64739 -3.23435,2.51605 -5.93435,4.61452 -6,4.66327 l -0.11935,0.0886 0,-6.20583 z"
       id="path3143-1"
       inkscape:connector-curvature="0" />
    <path
       style="fill:#000000"
       d="m 299.87219,360.75591 c -0.59707,-0.47297 -0.65185,-0.60604 -0.0745,-0.18103 0.21338,0.15707 0.41299,0.28559 0.44358,0.28559 0.0646,0 0.0589,0.0422 0.11543,-0.84375 l 0.0439,-0.6875 0.0106,0.92188 c 0.006,0.50703 0.004,0.92043 -0.005,0.91867 -0.009,-0.002 -0.24892,-0.18799 -0.53406,-0.41386 l 0,0 z"
       id="path3145-8"
       inkscape:connector-curvature="0" />
    <path
       style="fill:#000000"
       d="m 293.31286,355.68634 -6.40402,-4.98305 0.10982,0 0.10981,0 2.78639,2.18227 c 5.34314,4.1847 7.39415,5.77942 8.9473,6.95677 0.38929,0.29509 0.7052,0.53912 0.70202,0.54229 -0.003,0.003 -0.0417,-0.0134 -0.0856,-0.0368 -0.0439,-0.0234 -0.0855,-0.0369 -0.0924,-0.03 -0.0126,0.0126 0.11482,0.14157 0.27599,0.27936 0.0473,0.0404 0.0789,0.0732 0.0703,0.0728 -0.009,-3.5e-4 -2.89743,-2.24301 -6.41964,-4.98368 l 0,0 z"
       id="path3147-5"
       inkscape:connector-curvature="0" />
    <path
       style="fill:#000000"
       d="m 300.45543,362.8847 -0.004,-0.38109 -7.57813,-5.89389 c -4.16797,-3.24164 -7.58105,-5.89671 -7.58463,-5.90016 -0.004,-0.003 0.3525,-0.006 0.7913,-0.006 l 0.79781,0 6.78682,5.27866 6.78683,5.27865 0.004,-5.27865 0.004,-5.27866 0.49216,0 0.49216,0 0,5.28125 c 0,2.90469 0.003,5.28125 0.007,5.28125 0.005,0 5.11665,-3.97012 5.63722,-4.37853 l 0.0586,-0.046 -3e-4,0.6224 -2.8e-4,0.62241 -2.85128,2.21699 -2.85127,2.21699 0,0.37286 0,0.37285 -0.49191,0 -0.49191,0 -0.004,-0.38109 z"
       id="path3149-4"
       inkscape:connector-curvature="0" />
    <path
       style="fill:#000000"
       d="m 300.39782,361.197 c -0.0132,-0.0159 -0.0134,-0.0235 -7.6e-4,-0.0277 0.012,-0.004 0.0183,-0.10853 0.0202,-0.33355 0.005,-0.58438 -0.005,-1.51292 -0.0157,-1.50204 -0.006,0.006 -0.0158,0.0791 -0.0222,0.16276 -0.0138,0.18069 -0.004,-0.34317 0.0199,-1.12128 0.009,-0.29648 0.0216,-2.1457 0.0273,-4.10937 l 0.0105,-3.57031 0.003,5.26172 c 0.002,3.01036 -0.003,5.26171 -0.0106,5.26171 -0.008,0 -0.0219,-0.01 -0.0319,-0.0219 z"
       id="path3151-1"
       inkscape:connector-curvature="0" />
    <path
       style="fill:#000000"
       d="m 285.66549,349.74047 -1.23588,-0.96122 3.255,0 3.255,0 0,0.0442 0,0.0442 -0.74301,1.1e-4 c -1.00471,1.3e-4 -3.03776,0.0192 -3.52725,0.033 -0.99171,0.0281 -1.40404,0.0757 -1.46992,0.16976 -0.0313,0.0447 -0.0201,0.0719 0.064,0.15469 0.0637,0.0627 0.62356,0.50461 1.8527,1.46231 0.0139,0.0108 -0.005,0.0135 -0.0987,0.0138 l -0.11601,3.4e-4 -1.23588,-0.96121 0,0 z"
       id="path3153-6"
       inkscape:connector-curvature="0" />
    <path
       style="fill:#000000"
       d="m 299.97302,360.64434 c -0.62868,-0.45004 -3.08789,-2.3381 -5.58063,-4.28455 -4.10644,-3.2065 -9.00764,-7.04996 -9.08819,-7.12684 -0.0516,-0.0493 -0.0939,-0.10666 -0.0939,-0.12746 0,-0.0852 0.31948,-0.13943 1.02751,-0.17453 0.36382,-0.018 14.15302,-0.0761 14.16542,-0.0596 0.002,0.003 0.008,2.46105 0.0137,5.46294 0.005,3.00189 0.004,5.3486 -0.004,5.21491 -0.007,-0.13368 -0.0119,-0.78499 -0.0101,-1.44735 0.002,-0.66236 1.7e-4,-1.05514 -0.004,-0.87284 -0.0474,2.22331 -0.0702,2.85152 -0.12103,3.33666 -0.0127,0.12153 -0.0309,0.22889 -0.0403,0.23858 -0.009,0.01 -0.12878,-0.0623 -0.26516,-0.15989 l 0,0 z"
       id="path3155-5"
       inkscape:connector-curvature="0" />
    <path
       style="fill:#000000"
       d="m 299.96531,360.63846 c -1.00121,-0.71751 -3.63752,-2.759 -10.16988,-7.87526 -1.73793,-1.36119 -3.4383,-2.69224 -3.7786,-2.9579 -0.66953,-0.52268 -0.80654,-0.64156 -0.80654,-0.69981 0,-0.0852 0.31962,-0.13946 1.02751,-0.1745 0.36868,-0.0183 14.15227,-0.0766 14.16506,-0.06 0.002,0.003 0.009,2.4614 0.0143,5.46329 0.006,3.00189 0.003,5.34363 -0.005,5.20387 -0.008,-0.13977 -0.0125,-0.71153 -0.01,-1.27059 0.006,-1.17479 -0.002,-1.1063 -0.0339,0.29767 -0.0307,1.34183 -0.0801,2.18666 -0.13084,2.23897 -0.009,0.01 -0.13213,-0.0649 -0.27279,-0.16573 l 0,0 z"
       id="path3157-2"
       inkscape:connector-curvature="0" />
    <path
       style="fill:#000000"
       d="m 298.13113,348.85941 c 0.026,-0.002 0.0658,-0.002 0.0884,8e-5 0.0226,0.002 10e-4,0.004 -0.0473,0.004 -0.0486,-4e-5 -0.0671,-0.002 -0.0411,-0.004 z"
       id="path3159-1"
       inkscape:connector-curvature="0" />
    <path
       style="fill:#000000"
       d="m 290.94458,348.82295 0,-0.0465 4.55752,0 4.55753,0 0,0.0417 0,0.0417 -0.96537,-2.2e-4 c -0.53095,-1.2e-4 -1.29848,0.001 -1.70562,0.003 -0.40714,0.002 -2.02361,0.004 -3.59215,0.005 l -2.85191,0.002 0,-0.0465 z"
       id="path3161-2"
       inkscape:connector-curvature="0" />
    <path
       style="fill:#000000"
       d="m 311.83011,353.16392 c 0,-0.003 0.12554,-0.10307 0.27898,-0.22332 0.89476,-0.70124 1.3783,-1.10053 1.3783,-1.13816 0,-0.0379 -0.0917,0.01 -0.26341,0.1367 -0.0446,0.033 -0.0834,0.0577 -0.0862,0.0549 -0.003,-0.003 0.28729,-0.23286 0.6446,-0.5113 1.34751,-1.0501 2.54877,-1.99598 2.80012,-2.20485 0.11984,-0.0996 0.13104,-0.11314 0.13104,-0.15876 0,-0.11542 -0.4622,-0.17843 -1.57995,-0.21538 -0.71478,-0.0236 -1.66851,-0.034 -3.83936,-0.0417 l -2.23181,-0.008 2.14342,-0.007 c 1.17888,-0.004 2.17573,-0.0108 2.21523,-0.016 l 0.0718,-0.009 -0.0442,-0.009 c -0.0243,-0.005 -0.81731,-0.0132 -1.76224,-0.0179 -1.55415,-0.008 -1.35975,-0.009 2.0379,-0.0105 2.07465,-10e-4 3.75126,0.002 3.74546,0.007 -0.0317,0.0285 -5.62882,4.37684 -5.63379,4.37684 -0.003,0 -0.006,-0.002 -0.006,-0.005 z"
       id="path3163-5"
       inkscape:connector-curvature="0" />
  </g>
</svg>
